HIERARCHY
ROOT Bip001_Pelvis
{
  OFFSET 7.937 94.8971 -8.5489
  CHANNELS 6 Xposition Yposition Zposition Zrotation Xrotation Yrotation
  JOINT Bip001_Spine
  {
    OFFSET 1.44608e-005 10.4157 -0.0118244
    CHANNELS 3 Zrotation Xrotation Yrotation
    JOINT Bip001_L_Thigh
    {
      OFFSET 11.2582 -10.4157 0.0118432
      CHANNELS 3 Zrotation Xrotation Yrotation
      JOINT Bip001_L_Calf
      {
        OFFSET -0.720717 -44.8687 0.366937
        CHANNELS 3 Zrotation Xrotation Yrotation
        JOINT Bip001_L_Foot
        {
          OFFSET -0.664439 -41.3745 -3.62995
          CHANNELS 3 Zrotation Xrotation Yrotation
          JOINT Bip001_L_Toe0
          {
            OFFSET 0.0541047 -10.4146 13.4033
            CHANNELS 3 Zrotation Xrotation Yrotation
            End Site
            {
              OFFSET -1.04503e-005 0 7.70137
            }
          }
        }
      }
    }
    JOINT Bip001_R_Thigh
    {
      OFFSET -11.2582 -10.4156 0.0118122
      CHANNELS 3 Zrotation Xrotation Yrotation
      JOINT Bip001_R_Calf
      {
        OFFSET 0.72059 -44.8687 0.36676
        CHANNELS 3 Zrotation Xrotation Yrotation
        JOINT Bip001_R_Foot
        {
          OFFSET 0.664321 -41.3745 -3.62979
          CHANNELS 3 Zrotation Xrotation Yrotation
          JOINT Bip001_R_Toe0
          {
            OFFSET -0.05417 -10.4146 13.4033
            CHANNELS 3 Zrotation Xrotation Yrotation
            End Site
            {
              OFFSET -1.04873e-005 0 7.70137
            }
          }
        }
      }
    }
    JOINT Bip001_Spine1
    {
      OFFSET 1.90638e-005 14.8539 1.10727
      CHANNELS 3 Zrotation Xrotation Yrotation
      JOINT Bip001_Spine2
      {
        OFFSET 2.28934e-005 14.7848 -1.7233
        CHANNELS 3 Zrotation Xrotation Yrotation
        JOINT Bip001_Neck
        {
          OFFSET 2.24514e-005 15.6905 -0.498826
          CHANNELS 3 Zrotation Xrotation Yrotation
          JOINT Bip001_L_Clavicle
          {
            OFFSET 6.17691 -0.000591152 0.00852867
            CHANNELS 3 Zrotation Xrotation Yrotation
            JOINT Bip001_L_UpperArm
            {
              OFFSET 11.773 -0.0611878 0.00197697
              CHANNELS 3 Zrotation Xrotation Yrotation
              JOINT Bip001_L_Forearm
              {
                OFFSET 26.4515 0.0817568 -2.19579
                CHANNELS 3 Zrotation Xrotation Yrotation
                JOINT Bip001_L_Hand
                {
                  OFFSET 32.8677 0.156744 1.67112
                  CHANNELS 3 Zrotation Xrotation Yrotation
                  JOINT Bip001_L_Finger0
                  {
                    OFFSET 6.16268 -2.25226 6.01674
                    CHANNELS 3 Zrotation Xrotation Yrotation
                    End Site
                    {
                      OFFSET 4.30499 -1.46662 0.618148
                    }
                  }
                  JOINT Bip001_L_Finger1
                  {
                    OFFSET 11.2957 -0.718374 -0.201963
                    CHANNELS 3 Zrotation Xrotation Yrotation
                    End Site
                    {
                      OFFSET 6.31952 -0.405163 -0.0802303
                    }
                  }
                }
              }
            }
          }
          JOINT Bip001_R_Clavicle
          {
            OFFSET -6.17691 -0.000574027 0.00851165
            CHANNELS 3 Zrotation Xrotation Yrotation
            JOINT Bip001_R_UpperArm
            {
              OFFSET -11.773 -0.0611516 0.00194365
              CHANNELS 3 Zrotation Xrotation Yrotation
              JOINT Bip001_R_Forearm
              {
                OFFSET -26.4514 0.0822334 -2.19736
                CHANNELS 3 Zrotation Xrotation Yrotation
                JOINT Bip001_R_Hand
                {
                  OFFSET -32.8677 0.156817 1.67144
                  CHANNELS 3 Zrotation Xrotation Yrotation
                  JOINT Bip001_R_Finger0
                  {
                    OFFSET -6.1627 -2.25224 6.0167
                    CHANNELS 3 Zrotation Xrotation Yrotation
                    End Site
                    {
                      OFFSET -4.30499 -1.46662 0.618134
                    }
                  }
                  JOINT Bip001_R_Finger1
                  {
                    OFFSET -11.2958 -0.718344 -0.201994
                    CHANNELS 3 Zrotation Xrotation Yrotation
                    End Site
                    {
                      OFFSET -6.31952 -0.405146 -0.0802475
                    }
                  }
                }
              }
            }
          }
          JOINT Bip001_Head
          {
            OFFSET 1.11782e-005 11.4912 2.09908
            CHANNELS 3 Zrotation Xrotation Yrotation
            End Site
            {
              OFFSET 2.95144e-005 21.2823 -2.83069e-005
            }
          }
        }
      }
    }
  }
}
MOTION
Frames:	16
Frame Time:	0.04
10.064 95.0857 -7.66275 -0.140329 4.25281 26.2855 -1.52504 -0.59297 1.78937 1.02154 -15.5471 2.27766 0.119209 16.3057 -13.3696 -0.12315 -3.33574 -6.03845 0.62671 -10.383 -1.5848 -8.53839 -1.53142 -9.47234 1.07879 14.4671 -5.03252 -0.197383 -11.1391 -19.0271 2.28756 -11.7666 -1.39723 -2.58487 -1.22689 3.5856 -2.58487 -1.22689 3.5856 1.02078 -2.72507 -7.64772 -29.6601 4.83686 -6.11395 -49.7917 34.0886 11.4633 20.4997 5.99789 -33.1764 -6.07598 -0.0386715 0.045646 -1.59028e-015 0 9.54166e-015 -1.59028e-015 0 6.36111e-015 -5.33126 2.62306 16.4387 37.8429 -32.6162 58.3775 -44.2948 5.54662 60.0093 -9.36474 6.49134 -15.7024 8.82781e-032 -3.18055e-015 1.59028e-015 6.36111e-015 -3.18056e-015 1.59028e-015 -3.20419 3.04571 -6.33549 
10.0926 95.0776 -7.73776 0.0480347 3.76463 24.5047 -1.41921 -0.450448 1.63503 1.27614 -15.1431 3.14088 0.167738 16.6174 -13.2911 -0.10886 -3.72641 -5.1048 0.634627 -10.3647 -1.51446 -8.67071 -1.8348 -9.43108 0.723294 14.7337 -3.85492 0.0173545 -11.0381 -18.3164 2.11139 -11.7678 -1.28658 -2.39474 -0.93574 3.28294 -2.39482 -0.935747 3.28326 0.200823 -2.37067 -7.09092 -28.875 4.40636 -5.26946 -50.0591 36.9611 11.9367 20.5634 8.00617 -30.364 -6.59667 0.150914 -1.01646 -3.18055e-015 0 1.59028e-015 -1.59028e-015 0 -0 -3.075 2.86229 17.3982 42.087 -34.5912 58.8897 -46.9066 5.50129 68.5552 -11.6024 7.42972 -13.7818 -3.18055e-015 -3.18055e-015 -3.97569e-015 -8.82782e-032 -3.18056e-015 -1.59028e-015 -2.35688 3.23195 -6.23314 
10.0637 95.0633 -7.79895 0.240721 3.21689 22.3788 -1.27011 -0.344909 1.69011 1.43811 -14.6232 3.0033 0.124083 16.9446 -12.3409 -0.242089 -4.21188 -3.98913 0.655766 -10.3257 -1.38037 -8.88985 -2.13025 -9.33931 0.492625 15.0418 -2.91612 0.315232 -10.9582 -17.2896 1.7622 -11.7463 -1.14941 -2.17077 -0.722386 3.39364 -2.17077 -0.722387 3.39397 -0.259969 -2.4685 -7.23016 -29.0137 4.51757 -5.14428 -50.2337 38.4938 12.5072 19.2643 8.55154 -27.823 -7.6788 -0.0126024 -1.39301 -4.77083e-015 9.54166e-015 3.18055e-015 -1.59028e-015 1.27222e-014 1.59028e-015 0.313071 3.75549 17.2678 45.6565 -36.4345 58.898 -50.5835 5.44856 79.0724 -15.3929 6.99313 -11.3642 7.95139e-016 0 -3.57812e-015 2.38542e-015 0 -1.19271e-015 -2.244 4.26836 -6.48956 
10.0012 95.0971 -7.85749 0.540757 2.45488 20.0562 -1.13834 -0.174769 1.65642 1.75594 -13.6972 3.11931 -0.162025 16.8768 -10.7404 -0.385428 -4.48958 -3.40475 0.671037 -10.2938 -1.27726 -9.15679 -2.2498 -8.97651 0.422747 15.1689 -2.16551 0.494663 -10.7251 -16.1369 1.44781 -11.7457 -0.944473 -1.98037 -0.378596 3.3263 -1.98037 -0.378597 3.3263 -0.765758 -2.32467 -7.1389 -29.144 4.43531 -5.04654 -50.0575 38.6522 12.7082 17.9716 8.78758 -26.1588 -8.62974 -0.0793163 -1.00863 -3.18055e-015 3.18055e-015 -1.59028e-015 -3.97569e-015 9.54167e-015 -1.59028e-015 4.05681 4.39867 16.3135 45.7037 -35.9816 55.2449 -47.7375 2.47125 88.3198 -15.776 7.19934 -9.23116 -0 0 7.95139e-016 -0 0 3.97569e-016 -1.89489 4.22924 -6.63439 
9.86469 95.1488 -7.92593 0.667137 1.68851 17.7931 -0.992775 0.0369867 1.45804 2.21055 -12.8657 3.83531 -0.296298 16.794 -9.6179 -0.579802 -4.73322 -2.83433 0.680926 -10.2674 -1.20152 -9.20612 -2.41768 -8.38824 0.329865 15.093 -1.26826 0.514502 -10.3595 -15.2178 1.23728 -11.7449 -0.808639 -1.74165 0.0514717 2.93058 -1.74165 0.0514718 2.93058 -1.50124 -2.57199 -6.80188 -28.8893 4.8288 -4.95148 -50.6582 39.7791 13.1069 16.9569 7.40038 -24.7333 -9.0562 -0.377848 -0.109739 -2.38542e-015 3.18055e-015 -0 -7.95139e-016 0 -7.95139e-016 8.51865 5.55915 15.5692 40.8896 -33.2515 47.376 -42.24 -0.9057 95.7737 -13.2508 6.48502 -8.66054 4.77083e-015 3.18055e-015 -7.95139e-016 3.18055e-015 0 7.95139e-016 -1.44674 4.48794 -6.60999 
9.6267 95.2026 -8.04766 0.75027 0.927085 15.5319 -0.864262 0.202072 1.2189 2.80637 -11.9953 4.8014 -0.565588 16.6613 -8.38788 -0.76971 -4.87081 -2.51125 0.677115 -10.2535 -1.17435 -9.10073 -2.66866 -7.54971 0.141571 15.1143 -0.359072 0.531677 -10.001 -14.5136 0.994385 -11.7351 -0.674143 -1.53983 0.387504 2.45207 -1.53983 0.387503 2.45206 -1.71172 -2.65725 -6.54501 -28.9401 5.04073 -5.08261 -51.5748 40.1594 13.7176 15.8204 5.71642 -23.8967 -8.67035 -0.498961 0.762585 -1.59028e-015 1.27222e-014 -3.97569e-015 -1.59028e-015 9.54167e-015 -3.97569e-015 12.3453 6.40223 14.8657 36.3307 -28.1694 37.494 -37.0177 -2.76769 102.508 -10.2853 6.38198 -8.12221 -4.77083e-015 9.54166e-015 -3.18055e-015 -6.36111e-015 6.36111e-015 -4.77083e-015 -1.25271 4.81652 -6.45973 
9.39615 95.2208 -8.18478 0.915348 0.165497 13.2789 -0.717354 0.412614 0.932505 3.14479 -11.128 5.67796 -0.655579 16.5238 -7.1241 -1.07168 -5.04549 -2.25264 0.687442 -10.2109 -1.05052 -9.18674 -3.11007 -6.4641 0.0858199 15.5019 0.633769 0.541062 -9.83074 -14.0495 0.724602 -11.7046 -0.598649 -1.30433 0.814438 1.87856 -1.30433 0.814436 1.87857 -2.63939 -2.94268 -5.96733 -28.4155 5.55063 -5.08224 -51.7043 39.5328 12.9053 15.0073 5.48403 -23.0824 -8.20309 -0.475461 0.549114 2.38542e-015 3.18055e-015 -0 -1.76556e-031 6.36111e-015 1.59028e-015 17.1599 7.60023 14.601 31.8813 -22.1219 26.8259 -35.7139 -3.96658 106.131 -7.23939 5.43131 -5.68923 6.36111e-015 3.18055e-015 6.36111e-015 3.18055e-015 3.18056e-015 9.54166e-015 -0.56394 4.74726 -6.3228 
9.13163 95.2106 -8.35818 0.900442 -0.474838 11.1947 -0.596491 0.59477 0.6259 3.50465 -10.5546 6.06982 -0.649973 16.6305 -5.93831 -1.4443 -5.34762 -1.7297 0.712067 -10.1328 -0.811783 -9.0888 -3.68622 -5.65165 -0.0575917 15.949 1.58903 0.63836 -9.66094 -13.4297 0.466767 -11.6759 -0.508014 -1.11873 1.18331 1.26384 -1.11873 1.18331 1.26384 -2.85793 -2.88013 -5.39503 -28.2413 5.78843 -5.5736 -52.0805 39.5453 12.5854 14.6172 4.44266 -23.0884 -7.62169 -0.529789 0.334207 -2.38542e-015 -3.18055e-015 -7.95139e-016 -7.95139e-016 0 -1.59028e-015 21.4506 8.44084 14.6991 29.0027 -14.156 15.9435 -35.6171 -4.17666 106.126 -5.21444 5.09067 -4.25911 -6.36111e-015 -1.59028e-015 -3.18055e-015 -6.36111e-015 -1.59028e-015 -0 -0.225281 4.3607 -5.92472 
8.81692 95.1606 -8.52443 0.750441 -0.989406 9.27641 -0.424624 0.760945 0.398219 3.8898 -10.2787 6.67271 -0.528342 17.0788 -5.40474 -1.80848 -5.80719 -1.05447 0.741111 -10.056 -0.554374 -8.86965 -4.387 -5.07629 -0.295833 16.5419 2.66244 0.666901 -9.60095 -12.9307 0.24931 -11.6456 -0.444189 -0.822253 1.51897 0.805794 -0.822256 1.51897 0.805798 -3.23573 -3.48355 -5.03201 -28.237 6.49841 -5.47815 -51.6627 40.1323 11.5789 14.1592 3.71097 -23.3398 -6.73488 -0.460575 -0.226348 1.59028e-015 -3.18055e-015 -0 1.59028e-015 6.36111e-015 7.95139e-016 26.1464 9.97544 14.546 26.9901 -5.83972 6.0234 -32.6539 -1.81413 103.202 -3.26801 6.30812 -6.35865 7.95139e-016 -3.18055e-015 -0 1.59028e-015 -5.1684e-015 -0 -0.29227 4.93474 -5.62692 
8.46054 95.1136 -8.72141 0.507762 -1.40446 7.54185 -0.298887 0.871401 0.266659 4.38493 -10.1051 6.40681 -0.656859 17.5464 -4.02595 -2.19178 -6.21744 -0.577897 0.746842 -9.97712 -0.325375 -8.4488 -5.05535 -4.12148 -0.433143 17.0851 3.36882 0.522733 -9.55525 -12.7485 0.131097 -11.6236 -0.411444 -0.589301 1.74142 0.541054 -0.588855 1.74141 0.540771 -2.81079 -3.12238 -4.83759 -28.1392 6.44015 -6.46519 -51.8256 39.7729 10.8163 13.9973 3.3033 -24.0042 -5.48705 -0.368971 -0.91433 -4.77083e-015 -6.36111e-015 3.18055e-015 -3.18055e-015 -6.36111e-015 -0 27.8021 9.88414 14.1762 31.0952 -0.0482291 -0.975853 -31.3685 1.27055 96.6441 3.91753 4.54997 -8.77983 -1.59028e-015 2.38542e-015 3.18055e-015 -1.59028e-015 5.56597e-015 -3.18055e-015 -0.756629 4.47561 -5.22534 
8.21731 95.0763 -8.85326 0.498264 -1.87533 5.82971 -0.236101 0.98809 0.187658 4.69501 -9.58603 7.18309 -0.650827 17.6655 -3.4014 -2.47845 -6.46949 -0.440178 0.764578 -9.91931 -0.134794 -8.31308 -5.60751 -2.93472 -0.363178 17.7377 3.71233 0.402737 -9.6013 -12.5566 0.0154011 -11.6149 -0.331582 -0.481032 1.97538 0.381052 -0.480402 1.97537 0.38097 -2.46311 -2.95976 -4.50674 -27.9909 6.51983 -7.18841 -51.8786 39.6437 10.054 13.9077 2.15099 -24.9062 -4.58137 -0.283831 -1.228 -1.59028e-015 -9.54166e-015 1.59028e-015 -3.18055e-015 -9.54167e-015 -0 29.7277 9.95979 13.6864 34.7189 4.27195 -6.07677 -20.961 4.62927 87.1555 8.07479 3.60518 -13.7079 -0 -2.38542e-015 -0 -3.18055e-015 -1.59028e-015 3.97569e-016 -0.982159 4.32873 -4.76248 
8.05618 95.0464 -8.81292 0.710026 -2.14099 4.77766 -0.211626 1.05784 -0.00705793 4.58376 -9.04238 7.87246 -0.443022 17.444 -3.60036 -2.7048 -6.58961 0.0864919 0.781776 -9.87087 0.0106475 -8.46967 -5.98798 -2.85613 -0.465802 18.3766 4.72944 0.294914 -9.8692 -12.4098 -0.102917 -11.5965 -0.292804 -0.443301 2.11569 -0.00976048 -0.443301 2.11569 -0.00976113 -2.31281 -2.80528 -3.97934 -27.5684 6.51994 -7.57534 -51.9908 39.8225 9.15455 13.8551 1.08626 -25.7 -3.60099 -0.0725674 -2.08632 -3.18055e-015 -9.54166e-015 1.59028e-015 -1.59028e-015 -9.54167e-015 1.59028e-015 30.2969 9.70405 13.3378 40.0158 12.4922 -8.73098 -14.8392 0.0796224 74.3899 8.06826 2.3783 -18.048 6.36111e-015 9.54166e-015 -3.18055e-015 3.18055e-015 7.95139e-015 -0 -1.04936 4.03026 -4.20447 
7.71425 95.0393 -8.99479 0.376001 -2.4508 3.71021 -0.0632037 1.13351 -0.15589 5.19857 -8.91501 7.90089 -0.796262 17.7938 -2.52356 -2.91002 -6.76272 0.181715 0.778273 -9.86416 0.0296863 -7.96962 -6.27642 -2.0811 -0.556551 18.4667 4.75955 0.245421 -9.6464 -12.0924 -0.196051 -11.5958 -0.192944 -0.156809 2.26724 -0.310796 -0.156809 2.26724 -0.310798 -2.32625 -2.88221 -3.3533 -27.4696 6.83405 -7.97836 -51.2593 39.1451 7.91507 13.5605 1.08815 -26.3581 -2.51592 -0.22408 -2.6409 3.53112e-031 6.36111e-015 -3.18055e-015 1.76556e-031 6.36111e-015 -1.59028e-015 31.0976 9.6991 13.0437 44.4557 19.6124 -10.5656 -10.8703 -6.59726 62.5678 8.7709 1.04112 -21.0528 6.36111e-015 3.18055e-015 -3.18055e-015 6.36111e-015 3.18056e-015 -3.18055e-015 -1.12497 3.86035 -3.58384 
7.53503 95.0296 -9.02634 0.388626 -2.76068 2.73794 0.00279179 1.1954 -0.255284 5.34701 -8.44279 8.93045 -0.701992 17.7257 -2.62787 -3.07899 -6.83302 0.212435 0.78686 -9.85231 0.0799063 -7.87161 -6.48133 -1.82571 -0.738574 18.7852 5.35588 0.158195 -9.66425 -11.8584 -0.227767 -11.5957 -0.169864 -0.0277337 2.39085 -0.511261 -0.0277337 2.39085 -0.511261 -2.28469 -2.56395 -2.72973 -27.4831 6.83641 -8.66182 -50.4672 38.3582 6.69509 13.0727 1.14353 -26.761 -1.73055 -0.138516 -3.07571 -3.18055e-015 -3.18055e-015 1.59028e-015 -3.18055e-015 0 1.59028e-015 31.7675 9.29831 12.867 47.7041 24.1288 -11.8058 -3.09384 -14.7631 54.6307 8.60126 0.881745 -24.784 3.18055e-015 -6.36111e-015 -1.59028e-015 3.18055e-015 -9.54167e-015 -1.59028e-015 -1.2519 3.47382 -2.95107 
7.38095 95.0512 -8.99226 0.331365 -2.95245 2.07322 0.0663907 1.22874 -0.328662 5.50831 -8.04633 9.02531 -0.85748 17.5622 -2.12462 -3.19914 -6.85045 0.329133 0.789529 -9.84843 0.0955447 -7.70666 -6.47911 -1.2637 -0.774877 18.7543 5.47647 0.0661903 -9.57962 -11.8139 -0.236057 -11.5954 -0.153512 0.098048 2.45719 -0.659557 0.0987911 2.45719 -0.659515 -2.1631 -2.0859 -2.17518 -27.5057 6.70396 -9.49303 -50.4749 39.95 6.57087 13.4574 -0.191161 -27.3484 -1.59889 -0.353999 -2.57894 -3.18055e-015 3.18055e-015 -0 -3.18055e-015 3.18056e-015 1.59028e-015 31.9659 8.61105 12.5504 50.5797 28.5831 -12.7323 4.01035 -23.8096 49.0776 5.61323 1.3539 -26.557 1.19271e-015 -3.18055e-015 -2.38542e-015 3.97569e-016 -6.36111e-015 -1.59028e-015 -1.38943 2.84858 -2.36863 
7.25646 95.0852 -8.97102 0.443912 -3.12592 1.82315 0.0711324 1.24492 -0.417638 5.49009 -7.61287 9.1368 -0.955523 17.1438 -1.88666 -3.27879 -6.65822 0.345736 0.782106 -9.85919 0.0520899 -7.72978 -6.39372 -0.647629 -0.656254 18.7748 5.17101 0.0554244 -9.59629 -11.8086 -0.313023 -11.583 -0.130684 0.11277 2.48782 -0.838144 0.117059 2.48784 -0.838013 -1.9551 -1.70766 -1.60084 -27.5729 6.65131 -10.2678 -50.1593 39.9854 5.93608 13.6138 -0.270347 -27.5122 -1.81778 -0.206793 -2.3822 -1.76556e-031 -3.18055e-015 -3.18055e-015 -8.82782e-032 -3.18056e-015 -1.59028e-015 32.1075 7.96243 12.0648 52.88 31.9787 -13.671 9.13087 -31.6263 45.1381 3.99319 1.42947 -26.7394 3.97569e-016 -3.18055e-015 -0 3.72721e-016 -6.36111e-015 -0 -1.40296 2.53231 -1.76167 
